<?xml version="1.0" standalone="no"?>
<!DOCTYPE svg PUBLIC "-//W3C//DTD SVG 20010904//EN"
 "http://www.w3.org/TR/2001/REC-SVG-20010904/DTD/svg10.dtd">
<svg version="1.0" xmlns="http://www.w3.org/2000/svg"
 width="1600.000000pt" height="1600.000000pt" viewBox="0 0 1600.000000 1600.000000"
 preserveAspectRatio="xMidYMid meet">

<g transform="translate(0.000000,1600.000000) scale(0.100000,-0.100000)"
fill="#000000" stroke="none">
<path d="M5900 14314 c-271 -42 -524 -140 -751 -293 -469 -315 -762 -814 -809
-1378 -14 -167 -13 -7447 0 -7619 73 -900 783 -1609 1687 -1684 166 -14 5458
-13 5618 1 498 43 938 269 1253 644 237 282 381 615 422 975 8 67 10 1232 8
3940 l-4 3845 -22 99 c-84 383 -249 692 -506 950 -257 256 -562 421 -930 504
l-121 27 -2875 1 c-2466 2 -2889 0 -2970 -12z"/>
<path d="M3432 12511 c-238 -160 -350 -248 -425 -335 -162 -188 -263 -389
-314 -626 -17 -81 -18 -237 -18 -3550 0 -3295 1 -3471 18 -3585 42 -275 103
-510 194 -740 322 -819 967 -1463 1788 -1788 222 -88 430 -143 710 -190 l130
-22 2435 -3 c1754 -2 2457 0 2515 8 319 45 611 200 818 437 60 69 358 497 373
538 6 13 -298 15 -2983 15 -3210 0 -3080 -2 -3313 50 -214 47 -483 157 -668
272 -267 166 -534 433 -700 700 -115 185 -227 458 -273 669 -51 235 -49 26
-49 4311 0 2193 -4 3988 -8 3988 -4 0 -108 -67 -230 -149z"/>
</g>
</svg>
