<?xml version="1.0" standalone="no"?>
<!DOCTYPE svg PUBLIC "-//W3C//DTD SVG 20010904//EN"
 "http://www.w3.org/TR/2001/REC-SVG-20010904/DTD/svg10.dtd">
<svg version="1.0" xmlns="http://www.w3.org/2000/svg"
 width="1600.000000pt" height="1600.000000pt" viewBox="0 0 1600.000000 1600.000000"
 preserveAspectRatio="xMidYMid meet">

<g transform="translate(0.000000,1600.000000) scale(0.100000,-0.100000)"
fill="#000000" stroke="none">
<path d="M7924 15460 c-213 -32 -384 -186 -439 -396 -13 -50 -15 -210 -15
-1161 l0 -1103 -2217 -2 -2218 -3 -100 -27 c-401 -111 -694 -422 -782 -830
-17 -79 -18 -298 -18 -4738 0 -4440 1 -4659 18 -4738 88 -408 382 -720 782
-830 l100 -27 4965 0 4965 0 97 27 c190 52 354 146 486 277 175 173 284 398
311 644 15 135 15 9159 0 9294 -27 246 -136 471 -311 644 -132 131 -296 225
-486 277 l-97 27 -2217 3 -2218 2 0 1103 c0 1206 2 1153 -59 1275 -99 196
-330 315 -547 282z m606 -6017 l0 -3357 648 645 c591 590 653 648 712 676 94
45 144 56 240 56 148 1 275 -51 378 -155 104 -103 156 -230 155 -378 0 -97
-12 -147 -56 -240 -28 -60 -111 -145 -1141 -1178 -666 -668 -1134 -1129 -1169
-1152 -103 -70 -155 -84 -297 -84 -142 0 -194 14 -297 84 -35 23 -503 484
-1169 1152 -1030 1033 -1113 1118 -1141 1178 -45 94 -56 144 -56 240 -1 142
50 273 144 368 184 188 447 221 674 84 22 -13 327 -310 678 -660 l637 -637 0
3358 0 3357 530 0 530 0 0 -3357z"/>
</g>
</svg>
